<mxfile host="app.diagrams.net" modified="2024-03-13T04:55:19.766Z" agent="Mozilla/5.0 (Windows NT 10.0; Win64; x64) AppleWebKit/537.36 (KHTML, like Gecko) Chrome/122.0.0.0 Safari/537.36 Edg/122.0.0.0" version="24.0.5" etag="RG8ZXu3283qcCvq9yccg" type="github">
  <diagram name="PÃ¡gina-1" id="JWBc7rilh0_gyHuE2EW0">
    <mxGraphModel>
      <root>
        <mxCell id="0" />
        <mxCell id="1" parent="0" />
      </root>
    </mxGraphModel>
  </diagram>
</mxfile>
